<svg xmlns="http://www.w3.org/2000/svg" viewBox="0 0 192 192" width="192" height="192">
  <defs>
    <radialGradient id="bg" cx="30%" cy="20%" r="80%">
      <stop offset="0%" stop-color="#2C3B4D"/>
      <stop offset="100%" stop-color="#1B2632"/>
    </radialGradient>
    <radialGradient id="glow" cx="50%" cy="50%" r="50%">
      <stop offset="0%" stop-color="#FFB162" stop-opacity="0.15"/>
      <stop offset="100%" stop-color="#FFB162" stop-opacity="0"/>
    </radialGradient>
  </defs>
  <!-- Background -->
  <rect width="192" height="192" rx="38" fill="url(#bg)"/>
  <!-- Ambient glow -->
  <ellipse cx="96" cy="80" rx="80" ry="70" fill="url(#glow)"/>
  <!-- Candlestick chart -->
  <rect x="44" y="108" width="14" height="36" rx="3" fill="#4CAF82" opacity="0.9"/>
  <rect x="50" y="96" width="2" height="12" rx="1" fill="#4CAF82" opacity="0.7"/>
  <rect x="50" y="144" width="2" height="8" rx="1" fill="#4CAF82" opacity="0.7"/>
  <rect x="72" y="88" width="14" height="48" rx="3" fill="#A35139" opacity="0.9"/>
  <rect x="78" y="76" width="2" height="12" rx="1" fill="#A35139" opacity="0.7"/>
  <rect x="78" y="136" width="2" height="10" rx="1" fill="#A35139" opacity="0.7"/>
  <rect x="100" y="70" width="14" height="60" rx="3" fill="#4CAF82" opacity="0.9"/>
  <rect x="106" y="56" width="2" height="14" rx="1" fill="#4CAF82" opacity="0.7"/>
  <rect x="106" y="130" width="2" height="8" rx="1" fill="#4CAF82" opacity="0.7"/>
  <rect x="128" y="82" width="14" height="40" rx="3" fill="#FFB162" opacity="0.95"/>
  <rect x="134" y="68" width="2" height="14" rx="1" fill="#FFB162" opacity="0.7"/>
  <rect x="134" y="122" width="2" height="10" rx="1" fill="#FFB162" opacity="0.7"/>
  <!-- Trend line -->
  <polyline points="51,128 79,112 107,100 135,90" stroke="#FFB162" stroke-width="2" fill="none" stroke-linecap="round" stroke-linejoin="round" opacity="0.5"/>
  <!-- Play button (YouTube hint) -->
  <circle cx="148" cy="52" r="16" fill="#FF0000" opacity="0.85"/>
  <polygon points="143,46 158,52 143,58" fill="white"/>
</svg>
