<svg xmlns="http://www.w3.org/2000/svg" viewBox="0 0 512 512" width="512" height="512">
  <!-- Maskable: safe zone is inner 80% (410x410 centered), so content must be within ~50px inset -->
  <defs>
    <radialGradient id="bg" cx="30%" cy="20%" r="80%">
      <stop offset="0%" stop-color="#2C3B4D"/>
      <stop offset="100%" stop-color="#1B2632"/>
    </radialGradient>
  </defs>
  <!-- Full bleed background (no rounded corners for maskable) -->
  <rect width="512" height="512" fill="url(#bg)"/>
  <!-- Content inside safe zone (51px inset on each side) -->
  <!-- Candlesticks -->
  <rect x="130" y="295" width="34" height="85" rx="7" fill="#4CAF82" opacity="0.9"/>
  <rect x="146" y="268" width="4" height="27" rx="2" fill="#4CAF82" opacity="0.7"/>
  <rect x="146" y="380" width="4" height="18" rx="2" fill="#4CAF82" opacity="0.7"/>
  <rect x="200" y="245" width="34" height="112" rx="7" fill="#A35139" opacity="0.9"/>
  <rect x="216" y="218" width="4" height="27" rx="2" fill="#A35139" opacity="0.7"/>
  <rect x="216" y="357" width="4" height="22" rx="2" fill="#A35139" opacity="0.7"/>
  <rect x="270" y="198" width="34" height="140" rx="7" fill="#4CAF82" opacity="0.9"/>
  <rect x="286" y="166" width="4" height="32" rx="2" fill="#4CAF82" opacity="0.7"/>
  <rect x="286" y="338" width="4" height="20" rx="2" fill="#4CAF82" opacity="0.7"/>
  <rect x="340" y="228" width="34" height="94" rx="7" fill="#FFB162" opacity="0.95"/>
  <rect x="356" y="198" width="4" height="30" rx="2" fill="#FFB162" opacity="0.7"/>
  <rect x="356" y="322" width="4" height="22" rx="2" fill="#FFB162" opacity="0.7"/>
  <polyline points="147,338 217,302 287,272 357,248" stroke="#FFB162" stroke-width="5" fill="none" stroke-linecap="round" opacity="0.5"/>
  <!-- YouTube play badge -->
  <circle cx="382" cy="148" r="38" fill="#FF0000" opacity="0.85"/>
  <polygon points="368,133 402,148 368,163" fill="white"/>
</svg>
